<?xml version="1.0" encoding="utf-8"?>
<!-- Generator: Adobe Illustrator 24.1.0, SVG Export Plug-In . SVG Version: 6.00 Build 0)  -->
<svg version="1.2" baseProfile="tiny" id="Capa_1" xmlns="http://www.w3.org/2000/svg" xmlns:xlink="http://www.w3.org/1999/xlink"
	 x="0px" y="0px" viewBox="0 0 451 143" xml:space="preserve">
<g>
	<g>
		<path fill="#B98F0E" d="M10.44,83.51c0-0.4,0.13-0.75,0.4-1.04c0.27-0.29,0.64-0.44,1.11-0.44h9.95c0.38,0,0.73,0.13,1.04,0.4
			c0.31,0.27,0.48,0.63,0.5,1.08v36.58h18.49c0.4,0,0.75,0.13,1.04,0.4c0.29,0.27,0.44,0.64,0.44,1.11v8.84
			c0,0.38-0.13,0.73-0.39,1.04c-0.26,0.31-0.62,0.48-1.09,0.5H11.91c-0.99,0-1.48-0.49-1.48-1.48V83.51z"/>
		<path fill="#B98F0E" d="M93.82,129.5c0,0.38-0.07,0.75-0.2,1.09c-0.13,0.35-0.36,0.62-0.67,0.82c-0.25,0.25-0.54,0.4-0.87,0.47
			c-0.34,0.07-0.63,0.1-0.87,0.1h-6.62c-0.47,0-0.85-0.06-1.14-0.19c-0.29-0.12-0.53-0.3-0.71-0.52c-0.18-0.22-0.33-0.5-0.45-0.82
			c-0.12-0.32-0.25-0.68-0.39-1.06l-0.44-1.51c-0.6,0.61-1.29,1.2-2.07,1.78c-0.77,0.58-1.63,1.1-2.56,1.56s-1.93,0.83-2.99,1.11
			c-1.06,0.28-2.17,0.42-3.31,0.42c-2.04,0-4-0.26-5.87-0.77c-1.87-0.52-3.62-1.25-5.25-2.2c-1.63-0.95-3.1-2.1-4.42-3.43
			c-1.32-1.33-2.46-2.82-3.41-4.45s-1.69-3.4-2.2-5.3s-0.77-3.87-0.77-5.93c0-3.12,0.57-6.01,1.71-8.69
			c1.14-2.68,2.7-5.01,4.67-6.99c1.97-1.98,4.29-3.54,6.96-4.67c2.67-1.13,5.52-1.7,8.57-1.7c1.39,0,2.68,0.16,3.88,0.47
			c1.2,0.31,2.3,0.74,3.29,1.28c1,0.54,1.9,1.18,2.71,1.93c0.81,0.75,1.51,1.56,2.12,2.44l0.98-3.06c0.22-0.56,0.41-1.01,0.55-1.36
			c0.15-0.35,0.3-0.6,0.47-0.77c0.17-0.17,0.38-0.28,0.62-0.34c0.25-0.06,0.59-0.08,1.04-0.08h5.01c0.25,0,0.54,0.03,0.87,0.1
			c0.34,0.07,0.63,0.22,0.87,0.47c0.31,0.25,0.54,0.53,0.67,0.84c0.13,0.31,0.2,0.67,0.2,1.08V129.5z M60.7,110.67
			c0,1.48,0.23,2.86,0.69,4.15c0.46,1.29,1.11,2.4,1.97,3.35c0.85,0.94,1.88,1.69,3.08,2.24s2.53,0.82,3.98,0.82
			c1.5,0,2.9-0.27,4.19-0.82c1.29-0.55,2.41-1.29,3.36-2.24c0.95-0.94,1.7-2.06,2.24-3.35c0.54-1.29,0.81-2.67,0.81-4.15
			c0-1.43-0.27-2.8-0.81-4.1c-0.54-1.3-1.28-2.44-2.24-3.43c-0.95-0.99-2.07-1.77-3.36-2.34c-1.29-0.57-2.68-0.86-4.19-0.86
			c-1.46,0-2.79,0.29-3.98,0.86c-1.2,0.57-2.22,1.35-3.08,2.34c-0.85,0.99-1.51,2.13-1.97,3.43
			C60.93,107.87,60.7,109.24,60.7,110.67z"/>
		<path fill="#B98F0E" d="M124.61,83.61c0-0.47,0.13-0.84,0.39-1.11c0.26-0.27,0.57-0.41,0.92-0.44h32.18c0.52,0,0.9,0.15,1.16,0.44
			c0.26,0.29,0.39,0.68,0.39,1.17v8.31c0,0.38-0.13,0.74-0.4,1.09c-0.27,0.35-0.66,0.52-1.18,0.52h-20.44v10.42h15.1
			c0.43,0,0.78,0.12,1.08,0.35c0.29,0.24,0.44,0.61,0.44,1.13v8.04c0,0.38-0.13,0.75-0.39,1.09c-0.26,0.35-0.61,0.52-1.06,0.52
			h-15.16v15.4c0,0.96-0.52,1.45-1.55,1.45h-10.25c-0.81-0.11-1.21-0.58-1.21-1.41V83.61z"/>
		<path fill="#B98F0E" d="M163.04,110.67c0-2.06,0.26-4.05,0.79-5.95c0.53-1.9,1.27-3.67,2.22-5.3c0.95-1.62,2.1-3.1,3.43-4.44
			c1.33-1.33,2.82-2.47,4.45-3.41s3.4-1.67,5.3-2.19c1.89-0.52,3.87-0.77,5.93-0.77c3.05,0,5.91,0.57,8.59,1.7
			c2.68,1.13,5.01,2.69,6.99,4.67c1.98,1.98,3.55,4.32,4.71,6.99c1.15,2.68,1.73,5.58,1.73,8.69c0,2.06-0.26,4.04-0.79,5.93
			c-0.53,1.89-1.27,3.66-2.22,5.3c-0.95,1.64-2.1,3.12-3.43,4.45c-1.33,1.33-2.82,2.48-4.45,3.43c-1.64,0.95-3.39,1.69-5.26,2.2
			s-3.83,0.77-5.87,0.77c-2.06,0-4.04-0.26-5.93-0.77s-3.66-1.25-5.3-2.2c-1.64-0.95-3.12-2.1-4.45-3.43
			c-1.33-1.33-2.48-2.82-3.43-4.45s-1.69-3.4-2.22-5.3C163.31,114.71,163.04,112.74,163.04,110.67z M175.32,110.67
			c0,1.48,0.23,2.86,0.69,4.15c0.46,1.29,1.11,2.4,1.95,3.35c0.84,0.94,1.86,1.69,3.06,2.24c1.2,0.55,2.55,0.82,4.05,0.82
			c1.46,0,2.77-0.27,3.95-0.82s2.17-1.29,2.99-2.24c0.82-0.94,1.45-2.06,1.88-3.35c0.44-1.29,0.66-2.67,0.66-4.15
			c0-1.43-0.22-2.8-0.66-4.1c-0.44-1.3-1.06-2.44-1.88-3.43c-0.82-0.99-1.82-1.77-2.99-2.34c-1.18-0.57-2.49-0.86-3.95-0.86
			c-1.5,0-2.85,0.29-4.05,0.86c-1.2,0.57-2.22,1.35-3.06,2.34c-0.84,0.99-1.49,2.13-1.95,3.43
			C175.55,107.87,175.32,109.24,175.32,110.67z"/>
		<path fill="#B98F0E" d="M213.88,91.78c0-0.43,0.08-0.8,0.24-1.11c0.16-0.31,0.36-0.57,0.62-0.77c0.26-0.2,0.55-0.35,0.87-0.45
			c0.32-0.1,0.64-0.15,0.96-0.15h5.08c0.56,0,1.01,0.17,1.34,0.5c0.34,0.34,0.62,0.76,0.86,1.28c0.24,0.52,0.44,1.09,0.62,1.71
			c0.18,0.63,0.39,1.23,0.64,1.82c0.67-0.74,1.34-1.47,2-2.19c0.66-0.72,1.37-1.36,2.13-1.92c0.76-0.56,1.6-1.01,2.5-1.36
			c0.91-0.35,1.95-0.52,3.11-0.52c1.21,0,2.29,0.09,3.24,0.27s1.85,0.44,2.71,0.79c0.85,0.35,1.7,0.79,2.54,1.33
			c0.84,0.54,1.75,1.17,2.74,1.88c0.96,0.56,1.45,1.22,1.45,1.98c0,0.49-0.19,1.06-0.57,1.71l-3.06,5.21
			c-0.6,0.87-1.36,1.31-2.25,1.31c-0.45,0-0.95-0.12-1.51-0.37c-0.96-0.94-1.94-1.64-2.94-2.1c-1-0.46-2.13-0.69-3.41-0.69
			c-0.88,0-1.64,0.12-2.3,0.37c-0.66,0.25-1.26,0.59-1.8,1.04c-0.54,0.45-1.04,0.99-1.51,1.61c-0.47,0.63-0.94,1.32-1.41,2.08v24.34
			c0,0.85-0.21,1.5-0.62,1.93c-0.42,0.44-1.1,0.66-2.07,0.66h-7.56c-1.75,0-2.62-0.86-2.62-2.59V91.78z"/>
		<path fill="#B98F0E" d="M255.17,82.63c0-0.69,0.23-1.22,0.69-1.56c0.46-0.35,1.12-0.68,1.97-0.99l7.63-2.66
			c0.11-0.02,0.22-0.03,0.32-0.03c0.1,0,0.2,0,0.29,0c0.83,0,1.38,0.24,1.67,0.72c0.28,0.48,0.42,1.12,0.42,1.9l-0.03,9.25h4.61
			c0.72,0,1.3,0.21,1.75,0.64c0.45,0.43,0.67,1.06,0.67,1.92v6.49c0,0.94-0.22,1.63-0.67,2.07c-0.45,0.44-1.03,0.66-1.75,0.66h-4.61
			l0.03,28.38c0,0.85-0.25,1.5-0.74,1.93c-0.49,0.44-1.18,0.66-2.05,0.66h-7.6c-1.73,0-2.59-0.86-2.59-2.59l-0.03-28.38h-3.46
			c-1.73,0-2.59-0.91-2.59-2.72v-6.49c0-1.7,0.86-2.56,2.59-2.56h3.46L255.17,82.63z"/>
		<path fill="#B98F0E" d="M321.1,131.42c-0.29,0.25-0.6,0.4-0.92,0.47s-0.63,0.1-0.92,0.1h-5.08c-0.4,0-0.75-0.07-1.04-0.22
			c-0.29-0.15-0.54-0.34-0.74-0.59c-0.2-0.25-0.37-0.53-0.5-0.84c-0.13-0.31-0.25-0.64-0.34-0.97l-0.71-3.29
			c-0.34,0.69-0.9,1.42-1.68,2.2c-0.79,0.77-1.75,1.48-2.91,2.13c-1.16,0.65-2.48,1.19-3.98,1.61c-1.5,0.42-3.14,0.64-4.91,0.64
			c-2.55,0-4.82-0.49-6.79-1.48c-1.97-0.99-3.64-2.33-4.99-4.03c-1.36-1.7-2.38-3.69-3.08-5.97c-0.7-2.27-1.04-4.7-1.04-7.28V91.88
			c0-0.85,0.19-1.5,0.56-1.93c0.37-0.44,0.96-0.66,1.76-0.66h7.77c0.96,0,1.63,0.16,1.98,0.49c0.36,0.33,0.54,0.96,0.54,1.9v21.91
			c0,0.96,0.19,1.88,0.55,2.74c0.37,0.86,0.87,1.63,1.5,2.29c0.63,0.66,1.36,1.18,2.2,1.56c0.84,0.38,1.73,0.57,2.67,0.57
			c0.81,0,1.68-0.13,2.62-0.4c0.94-0.27,1.82-0.69,2.62-1.26c0.81-0.57,1.48-1.31,2.02-2.21c0.54-0.9,0.81-1.97,0.81-3.23V91.78
			c0-0.38,0.07-0.76,0.22-1.14s0.36-0.67,0.66-0.88c0.29-0.18,0.57-0.3,0.82-0.37c0.26-0.07,0.55-0.1,0.89-0.1h7.6
			c0.96,0,1.66,0.24,2.08,0.71s0.64,1.1,0.64,1.88v37.63c0,0.43-0.1,0.82-0.29,1.18c-0.19,0.36-0.45,0.64-0.79,0.84L321.1,131.42z"
			/>
		<path fill="#B98F0E" d="M330.92,89.89c0.29-0.25,0.6-0.4,0.92-0.47c0.33-0.07,0.63-0.1,0.92-0.1h5.08c0.4,0,0.75,0.07,1.04,0.22
			c0.29,0.15,0.54,0.34,0.74,0.59c0.2,0.25,0.36,0.53,0.49,0.84c0.12,0.31,0.24,0.64,0.35,0.97l0.71,2.95
			c0.34-0.69,0.88-1.41,1.63-2.15c0.75-0.74,1.68-1.41,2.79-2.01c1.11-0.6,2.39-1.1,3.85-1.49c1.46-0.39,3.08-0.59,4.88-0.59
			c2.56,0,4.84,0.49,6.84,1.48s3.71,2.32,5.11,4.02c1.4,1.7,2.46,3.68,3.19,5.96c0.73,2.27,1.09,4.7,1.09,7.27v22.02
			c0,0.85-0.18,1.5-0.55,1.93s-0.96,0.66-1.76,0.66h-7.77c-0.96,0-1.63-0.16-1.98-0.49c-0.36-0.32-0.54-0.96-0.54-1.9v-21.89
			c0-0.96-0.22-1.88-0.66-2.74c-0.44-0.86-1.01-1.63-1.73-2.29c-0.72-0.66-1.53-1.18-2.44-1.56c-0.91-0.38-1.83-0.57-2.77-0.57
			c-0.81,0-1.63,0.18-2.47,0.54c-0.84,0.36-1.61,0.86-2.32,1.5s-1.3,1.39-1.78,2.25c-0.48,0.86-0.76,1.8-0.82,2.81v21.85
			c0,0.38-0.07,0.76-0.22,1.14c-0.15,0.38-0.36,0.67-0.66,0.87c-0.29,0.18-0.57,0.3-0.82,0.37c-0.26,0.07-0.55,0.1-0.89,0.1h-7.6
			c-0.96,0-1.66-0.24-2.08-0.71c-0.43-0.47-0.64-1.1-0.64-1.88V91.8c0-0.42,0.1-0.82,0.29-1.17c0.19-0.36,0.45-0.64,0.79-0.84
			L330.92,89.89z"/>
		<path fill="#B98F0E" d="M422.57,129.5c0,0.38-0.07,0.75-0.2,1.09c-0.13,0.35-0.36,0.62-0.67,0.82c-0.25,0.25-0.54,0.4-0.87,0.47
			c-0.34,0.07-0.63,0.1-0.88,0.1h-6.62c-0.47,0-0.85-0.06-1.14-0.19c-0.29-0.12-0.53-0.3-0.71-0.52c-0.18-0.22-0.33-0.5-0.45-0.82
			c-0.12-0.32-0.25-0.68-0.39-1.06l-0.44-1.51c-0.61,0.61-1.29,1.2-2.07,1.78c-0.77,0.58-1.63,1.1-2.56,1.56
			c-0.93,0.46-1.93,0.83-2.99,1.11c-1.06,0.28-2.17,0.42-3.31,0.42c-2.04,0-4-0.26-5.87-0.77c-1.87-0.52-3.62-1.25-5.25-2.2
			c-1.63-0.95-3.1-2.1-4.42-3.43c-1.32-1.33-2.46-2.82-3.41-4.45c-0.95-1.64-1.69-3.4-2.2-5.3s-0.77-3.87-0.77-5.93
			c0-3.12,0.57-6.01,1.71-8.69c1.14-2.68,2.7-5.01,4.67-6.99c1.97-1.98,4.29-3.54,6.96-4.67c2.67-1.13,5.53-1.7,8.57-1.7
			c1.39,0,2.68,0.16,3.88,0.47s2.3,0.74,3.29,1.28c1,0.54,1.9,1.18,2.71,1.93s1.51,1.56,2.12,2.44l0.97-3.06
			c0.22-0.56,0.41-1.01,0.55-1.36c0.15-0.35,0.3-0.6,0.47-0.77c0.17-0.17,0.38-0.28,0.62-0.34c0.25-0.06,0.59-0.08,1.04-0.08h5.01
			c0.25,0,0.54,0.03,0.88,0.1c0.34,0.07,0.63,0.22,0.87,0.47c0.31,0.25,0.54,0.53,0.67,0.84c0.13,0.31,0.2,0.67,0.2,1.08V129.5z
			 M389.45,110.67c0,1.48,0.23,2.86,0.69,4.15c0.46,1.29,1.12,2.4,1.97,3.35c0.85,0.94,1.88,1.69,3.08,2.24
			c1.2,0.55,2.53,0.82,3.98,0.82c1.5,0,2.9-0.27,4.19-0.82c1.29-0.55,2.41-1.29,3.36-2.24c0.95-0.94,1.7-2.06,2.24-3.35
			c0.54-1.29,0.81-2.67,0.81-4.15c0-1.43-0.27-2.8-0.81-4.1s-1.28-2.44-2.24-3.43c-0.95-0.99-2.07-1.77-3.36-2.34
			c-1.29-0.57-2.68-0.86-4.19-0.86c-1.46,0-2.79,0.29-3.98,0.86c-1.2,0.57-2.23,1.35-3.08,2.34c-0.85,0.99-1.51,2.13-1.97,3.43
			S389.45,109.24,389.45,110.67z"/>
	</g>
	<g>
		<path fill="#831F27" d="M29.73,10.26c4.73,0.22,8.68,1.37,11.85,3.43c2.87,2.06,4.52,4.25,4.94,6.56
			c0.33,0.77,0.53,2.09,0.62,3.94c-0.19,4.09-2.39,6.63-6.59,7.64c-0.47,0.07-0.92,0.1-1.35,0.08c-1.19-0.05-3.35-0.88-6.5-2.48
			c-1.11-0.41-1.95-0.64-2.53-0.67l-0.94-0.03c-0.72-0.04-1.1,0.3-1.13,1.02c0.31,1.46,2.65,2.3,7.04,2.51
			c2.72,0.13,5.94,1.45,9.64,3.97c1.95,1.63,3.17,3.39,3.65,5.27c0.48,1.66,0.71,3.44,0.7,5.34c-0.08,3.65-1.33,7.2-3.75,10.63
			c-4.48,6-10.56,8.94-18.25,8.8l-0.68-0.03c-4.29-0.21-8.72-1.64-13.28-4.29c-4.19-2.69-6.2-5.85-6.02-9.47
			c0.11-2.26,1.52-4.44,4.24-6.54c1.77-0.9,3.5-1.31,5.18-1.22c0.77,0.03,4.11,0.82,10.01,2.37l0.81,0.03l0.56-0.37
			c0.69-1.13-1.15-1.76-5.51-1.89c-2.59-0.2-5.57-1.47-8.93-3.81c-2.48-1.94-4.08-3.97-4.81-6.1c-0.64-1.8-0.9-3.91-0.78-6.32
			c0.08-1.78,0.97-4.25,2.65-7.42c1.61-2.94,3.7-5.23,6.27-6.86C21.79,11.41,26.08,10.05,29.73,10.26z"/>
		<path fill="#831F27" d="M63.7,14.62c1.84,0,3.54,1.04,5.08,3.13c1.12,1.4,1.68,3.7,1.68,6.89c0,2.65-0.39,6.61-1.16,11.88v3.51
			c0,2.09,0.48,3.39,1.43,3.91l1.3,0.14h0.13c1.58,0,2.54-1.69,2.88-5.08v-5.23c-0.35-3.08-0.66-6.73-0.92-10.95
			c0-3.7,1.48-6.17,4.43-7.43c1.11-0.1,1.76-0.18,1.95-0.25c2.17,0,4.47,1.22,6.91,3.65c1.22,1.4,2.56,4.96,4.04,10.67
			c0.44,2.38,0.67,5.51,0.67,9.39c0,6.42-1.26,12.42-3.78,18c-2.15,3.59-4.41,5.94-6.78,7.04c-2.74,1.65-6.26,2.48-10.56,2.48
			c-1.82,0-4.56-1-8.21-3c-3.45-2.69-5.93-5.47-7.42-8.34c-0.82-0.82-1.77-3.2-2.88-7.16c-0.7-3.49-1.05-6.28-1.05-8.36
			c0-6.85,1.74-13.37,5.21-19.55C59.28,16.4,61.63,14.62,63.7,14.62z"/>
		<path fill="#831F27" d="M110.33,14.81c12.31,0,20.43,3.28,24.38,9.83c1.61,2.26,2.41,5.11,2.41,8.56v0.87
			c0,6.06-2.77,11.01-8.31,14.87c-2.8,1.49-5.43,2.24-7.9,2.24c-0.44,0-1.3-0.04-2.56-0.11c-1.02,0-1.52,0.76-1.52,2.27
			c0,4.12-0.94,7.68-2.81,10.69c-2.05,1.85-3.71,2.78-4.97,2.78h-0.25c-3.43,0-5.81-0.76-7.15-2.27c-2.09-1.55-3.88-4.7-5.37-9.45
			c-0.59-2.61-1.14-6.97-1.65-13.09c0-3.83,0.47-9.03,1.4-15.6c0.88-3.84,2.03-6.7,3.45-8.58c0.86-0.92,2.9-1.76,6.13-2.51
			C107.3,15.07,108.88,14.9,110.33,14.81z M117.65,32.23c-0.58,0-1.08,0.25-1.5,0.75c-0.42,0.5-0.63,1.1-0.63,1.81
			c0,0.7,0.21,1.3,0.63,1.8c0.42,0.5,0.92,0.75,1.5,0.75c0.59,0,1.1-0.25,1.52-0.75c0.42-0.5,0.63-1.1,0.63-1.8
			c0-0.71-0.21-1.31-0.63-1.81C118.75,32.47,118.24,32.23,117.65,32.23z"/>
		<path fill="#831F27" d="M163.48,15.93h0.38c4.37,0,8.58,1.66,12.61,4.99c2.21,2.39,3.65,5.28,4.32,8.66v0.67
			c0,4.5-0.81,7.72-2.41,9.66c-2.11,3.03-5.59,5.62-10.45,7.77c-0.31,0-0.66,0.27-1.05,0.79v0.25c0.18,0.36,0.44,0.54,0.79,0.54
			c2.03-0.55,4.92-1.82,8.66-3.81c0.98-0.25,1.77-0.38,2.37-0.38h0.25c1.97,0,3.28,1.01,3.92,3.02c0.66,2.81,0.04,5.71-1.86,8.71
			c-2.18,2.83-5.45,5.13-9.8,6.91c-4.73,1.74-8.36,2.61-10.88,2.61h-0.67c-5.97,0-11.05-3.15-15.22-9.45
			c-2.02-2.76-3.34-6.04-3.94-9.83c-0.43-3-0.65-4.83-0.65-5.5c0-7.98,2.14-14.11,6.43-18.36c4.53-3.9,8.99-6.13,13.38-6.7
			C161.1,16.1,162.37,15.93,163.48,15.93z M159.01,32.41c-0.4,0.5-0.53,1.02-0.39,1.56c0.14,0.53,0.5,0.92,1.1,1.16
			c0.59,0.24,1.24,0.28,1.94,0.1c0.7-0.18,1.25-0.52,1.64-1.02s0.53-1.02,0.39-1.55c-0.14-0.53-0.5-0.92-1.1-1.17
			s-1.24-0.28-1.94-0.1C159.95,31.56,159.41,31.9,159.01,32.41z"/>
		<path fill="#831F27" d="M211.61,14.5c5.05,0,8.72,2.22,10.99,6.67c0.86,3.03,1.3,5.25,1.33,6.67c0.08,4.29-1.76,7.15-5.53,8.59
			c-0.95,0.43-1.84,0.65-2.65,0.65c-1.93,0-4.77-0.77-8.51-2.32c-0.16-0.08-0.39-0.13-0.68-0.13c-1.06,0.12-1.58,0.5-1.57,1.16
			c0.01,0.64,0.15,3.03,0.41,7.18c0.29,5.97-0.46,11.19-2.22,15.65c-0.84,2.08-2.21,4.05-4.11,5.91c-1.59,1.27-2.94,2-4.07,2.18
			c-2.83,0-5.09-2.78-6.8-8.34c-1.43-5.77-2.2-11.76-2.32-17.97l-0.08-3.32c-0.11-5.67,0.71-11.44,2.45-17.33
			c1.47-2.82,2.91-4.23,4.31-4.23h0.4c1.81,0,3.55,0.85,5.23,2.56c0.34,0.25,0.74,0.38,1.19,0.38c0.22,0,1.58-0.64,4.07-1.92
			C206.36,15.18,209.08,14.5,211.61,14.5z"/>
		<path fill="#831F27" d="M258.11,10.45c4.8-0.17,8.99,0.29,12.57,1.38c2.93,1.36,5.18,3.69,6.75,7.01
			c0.57,1.12,0.86,2.38,0.86,3.78v0.54c0,3.89-1.53,7.48-4.59,10.79c-0.58,0.54-0.87,1.03-0.87,1.48c1.5,1.31,3.18,2.93,5.04,4.86
			c1.54,1.97,2.3,3.95,2.3,5.93v3.51c0,4.34-3.11,8.88-9.34,13.61c-3.33,1.88-7.49,2.83-12.5,2.83c-5.56-0.44-9.1-1.08-10.63-1.89
			c-2.71-1.17-4.55-2.91-5.53-5.24c-0.92-1.92-1.71-7.68-2.37-17.28c-0.09-8.09,0.56-16.02,1.95-23.8c0.52-1.92,2.69-3.87,6.51-5.85
			C249.55,11.38,252.84,10.83,258.11,10.45z M260.87,23.93c-0.61,0-1.13,0.24-1.56,0.71s-0.63,1.05-0.63,1.72
			c0,0.68,0.21,1.25,0.63,1.73s0.94,0.71,1.56,0.71c0.63,0,1.15-0.24,1.58-0.71s0.64-1.05,0.64-1.73c0-0.67-0.21-1.24-0.64-1.72
			S261.5,23.93,260.87,23.93z M262.59,44.12c-0.83,0-1.53,0.32-2.11,0.97c-0.58,0.65-0.87,1.42-0.87,2.33
			c0,0.92,0.29,1.71,0.87,2.35c0.58,0.65,1.29,0.97,2.11,0.97s1.53-0.32,2.11-0.97c0.58-0.65,0.87-1.43,0.87-2.35
			c0-0.91-0.29-1.69-0.87-2.33C264.12,44.45,263.42,44.12,262.59,44.12z"/>
		<path fill="#831F27" d="M295.54,33h0.14c1.29,0,2.77,1.02,4.45,3.05c2.15,3.9,3.22,8.37,3.22,13.41c0,5.3-0.69,8.86-2.06,10.71
			c-0.87,1.58-2.43,3.19-4.67,4.83c-1.41,0.87-2.84,1.3-4.3,1.3c-2.69,0-5.21-1.75-7.56-5.26c-1.34-3.35-2.02-6.11-2.02-8.29
			c0-7.72,1.44-12.98,4.32-15.79c2.09-2.03,3.79-3.13,5.11-3.29C293.62,33.23,294.74,33,295.54,33z M293.92,14.99
			c2.09,0.25,3.91,1.17,5.48,2.75c1.47,2.06,2.21,3.61,2.21,4.62c0,3.6-1.84,6.33-5.51,8.18c-1.95,0.86-3.84,1.29-5.67,1.29
			c-3.34-0.11-5.5-1.86-6.48-5.26c-0.67-3.92,1.09-7.34,5.26-10.26C290.8,15.43,292.37,14.99,293.92,14.99z"/>
		<path fill="#831F27" d="M313.82,14.69h0.52c1.71,0,3.61,1.5,5.7,4.51c0.37,0.28,0.73,0.41,1.06,0.41c0.2,0,1.25-0.8,3.15-2.4
			c2.62-1.68,5.3-2.53,8.05-2.53c3.04,0,6.01,1.86,8.93,5.59c2.09,3.81,3.16,9.71,3.22,17.7c0.31,10.9-0.86,18.31-3.51,22.22
			c-2.61,3.92-5.17,5.88-7.7,5.88h-0.67c-1.37,0-2.68-1.02-3.94-3.07c-0.6-1.28-1.08-3.24-1.43-5.86
			c-0.39-5.85-0.47-10.27-0.22-13.28c-0.04-3-0.08-5.14-0.11-6.42c-0.31-0.62-0.67-0.94-1.08-0.94c-1.31,0-2.04,0.97-2.18,2.92
			l0.13,5.34c0.08,1.94-0.34,5.49-1.29,10.64c-0.99,3.76-2.59,6.92-4.81,9.47c-1.77,1.32-3.12,1.99-4.07,1.99
			c-2.39,0-4.45-2.39-6.18-7.18c-0.78-2.98-1.27-9.02-1.45-18.13c0.14-8.48,0.6-14.87,1.38-19.16c0.63-2.85,1.52-4.76,2.67-5.73
			C311.58,15.35,312.85,14.69,313.82,14.69z"/>
		<path fill="#831F27" d="M377.25,14.75h0.24c3.34,0,5.9,3.31,7.71,9.94c0.91,3.92,1.49,8.27,1.75,13.06
			c-0.32,7.21-1.13,12.26-2.43,15.14c-1.08,3.06-3.5,6.51-7.26,10.34c-3.42,2.57-7.28,3.86-11.58,3.86c-2.98,0-5.99-0.44-9.05-1.33
			c-2.25-0.82-4.28-2.23-6.1-4.26c-2.08-3.01-3.11-5.45-3.11-7.34c0-2.54,1.33-4.16,3.99-4.86c0.54-0.07,1.07-0.11,1.6-0.11
			c4.87,1.24,7.69,1.86,8.45,1.86h0.62c0.14,0,0.3-0.16,0.49-0.49V50.3c0-0.32-1.37-0.77-4.1-1.37c-2.68-1.07-4.64-2.16-5.89-3.27
			c-1.31-1.09-2.37-2.53-3.18-4.31c-1-2.11-1.49-4.55-1.49-7.32c0-2.75,1.08-5.95,3.24-9.59c1.69-2.39,3.93-4.34,6.72-5.83
			c2.77-1.65,6.21-2.48,10.31-2.48c2.01,0.24,3.34,0.37,3.99,0.37c0.18,0,1.3-0.5,3.35-1.49C376.13,14.84,376.71,14.75,377.25,14.75
			z M367.15,33c-0.69-0.06-1.29,0.07-1.8,0.4c-0.51,0.33-0.79,0.75-0.83,1.25c-0.05,0.52,0.15,0.98,0.6,1.4
			c0.46,0.41,1.02,0.65,1.7,0.7c0.68,0.06,1.28-0.07,1.79-0.39c0.52-0.32,0.8-0.74,0.84-1.26c0.04-0.52-0.16-0.98-0.61-1.39
			C368.39,33.3,367.83,33.07,367.15,33z"/>
		<path fill="#831F27" d="M410.29,65.58c-4.18-0.04-7.5-0.79-9.94-2.24c-1.62-0.6-3.52-1.9-5.69-3.88c-2.19-2.67-3.65-5.8-4.37-9.39
			c-0.25-1.6-0.47-3.89-0.65-6.88c0-4.07,0.75-8.45,2.24-13.14c1.54-4.45,4.36-8.46,8.48-12.04c3.87-2.64,7.35-3.96,10.45-3.96
			c4.01,0,7.94,1.64,11.79,4.92c2.7,2.62,4.77,5.68,6.21,9.2c1.32,4.11,1.83,8.8,1.51,14.07c-0.52,4.98-2.21,9.75-5.08,14.31
			c-1.03,1.93-2.8,3.97-5.31,6.13C417.29,64.63,414.07,65.58,410.29,65.58z M411.48,40.29c0-3.89-0.65-5.83-1.95-5.83
			c-0.91,0-1.76,1.2-2.54,3.61c-0.2,0.66-0.3,1.82-0.3,3.48v0.84c0,3,0.68,4.71,2.05,5.15h0.1c1.11,0,1.96-1.81,2.56-5.42
			C411.45,41.51,411.48,40.9,411.48,40.29z"/>
	</g>
	<g>
		<circle fill="#D0121D" cx="415.76" cy="40.94" r="28.1"/>
		<circle fill="#FFFFFF" cx="414.65" cy="41.04" r="14.87"/>
		<g>
			<path fill="#FFFFFF" d="M414.65,59.61c-10.24,0-18.57-8.33-18.57-18.57c0-10.24,8.33-18.57,18.57-18.57
				c10.24,0,18.57,8.33,18.57,18.57C433.22,51.28,424.89,59.61,414.65,59.61z M414.65,23.69c-9.57,0-17.35,7.78-17.35,17.35
				s7.78,17.35,17.35,17.35c9.57,0,17.35-7.78,17.35-17.35S424.22,23.69,414.65,23.69z"/>
		</g>
		
			<text transform="matrix(0.9673 0.2537 -0.2537 0.9673 403.5026 43.5859)" fill="#1D1D1B" font-family="'FranklinGothic-MediumCond'" font-size="16.8168px">69</text>
	</g>
	<g>
		<circle fill="#FDCD34" cx="185.3" cy="110.72" r="21.27"/>
		
			<ellipse transform="matrix(0.7071 -0.7071 0.7071 0.7071 -24.0189 163.4595)" fill="#F5BC39" cx="185.3" cy="110.72" rx="15.44" ry="15.44"/>
		<g>
			<path fill="#FFFFFF" d="M184.1,118.51c-1.75-0.08-3.44-0.47-5.06-1.17v-3.98c0.93,0.47,1.93,0.87,3.02,1.18
				c1.09,0.32,2.04,0.47,2.87,0.47c0.68,0,1.18-0.08,1.49-0.25c0.32-0.16,0.47-0.44,0.47-0.82c0-0.26-0.11-0.49-0.34-0.67
				c-0.23-0.18-0.61-0.39-1.14-0.62c-0.53-0.23-1.25-0.51-2.15-0.84c-1.02-0.38-1.83-0.8-2.46-1.26c-0.62-0.47-1.08-0.99-1.36-1.57
				c-0.28-0.58-0.43-1.3-0.43-2.16c0-1.32,0.42-2.35,1.27-3.09c0.85-0.74,2.12-1.2,3.81-1.38v-1.64h2.48v1.62
				c1.59,0.09,3.19,0.48,4.81,1.17l-1.43,3.42c-1.67-0.75-3.18-1.13-4.52-1.13c-0.64,0-1.09,0.08-1.35,0.23
				c-0.26,0.16-0.39,0.39-0.39,0.69c0,0.26,0.09,0.48,0.28,0.65c0.19,0.17,0.51,0.36,0.98,0.58c0.46,0.21,1.11,0.46,1.93,0.74
				c1.67,0.59,2.87,1.26,3.6,2.02c0.73,0.76,1.09,1.73,1.09,2.92c0,1.34-0.43,2.43-1.28,3.27c-0.85,0.84-2.09,1.36-3.72,1.56v2.31
				h-2.48V118.51z"/>
		</g>
	</g>
</g>
</svg>
